<svg width="512" height="512" viewBox="0 0 512 512" fill="none" xmlns="http://www.w3.org/2000/svg">
<rect width="512" height="512" fill="#F5F5F5"/>
<g clip-path="url(#clip0_0_1)">
<path d="M471.6 21.7C449.7 -0.200006 414.3 -0.200006 392.4 21.7L362.3 51.7L460.2 149.6L490.3 119.5C512.2 97.6 512.2 62.2 490.3 40.3L471.6 21.7ZM172.4 241.7C166.3 247.8 161.6 255.3 158.9 263.6L129.3 352.4C126.4 361 128.7 370.5 135.1 377C141.5 383.5 151 385.7 159.7 382.8L248.5 353.2C256.7 350.5 264.2 345.8 270.4 339.7L437.7 172.3L339.7 74.3L172.4 241.7ZM96 64C43 64 0 107 0 160V416C0 469 43 512 96 512H352C405 512 448 469 448 416V320C448 302.3 433.7 288 416 288C398.3 288 384 302.3 384 320V416C384 433.7 369.7 448 352 448H96C78.3 448 64 433.7 64 416V160C64 142.3 78.3 128 96 128H192C209.7 128 224 113.7 224 96C224 78.3 209.7 64 192 64H96Z" fill="#B66ECF"/>
</g>
<defs>
<clipPath id="clip0_0_1">
<rect width="512" height="512" fill="white"/>
</clipPath>
</defs>
</svg>
